<svg width="22" height="21" viewBox="0 0 22 21" fill="none" xmlns="http://www.w3.org/2000/svg">
<path fill-rule="evenodd" clip-rule="evenodd" d="M2.34152 4.97884C2.07104 4.89096 1.78638 5.06698 1.74415 5.34823L1.23752 8.72303C1.16495 9.20645 1.45251 9.67149 1.91742 9.82255L19.1767 15.4304C19.9832 15.6925 20.8494 15.2511 21.1114 14.4446C21.3838 13.6063 20.896 12.7113 20.0439 12.4859L14.7322 11.0805L13.4041 1.70728C13.349 1.31838 13.0772 0.994827 12.7037 0.873449C12.0777 0.670055 11.4244 1.09886 11.362 1.7541L10.6019 9.73843L3.34571 7.79587L2.64239 5.29209C2.60078 5.14394 2.48787 5.02639 2.34152 4.97884ZM21.1776 18.4521H0.647583V20.0314H21.1776V18.4521Z" fill="#6E7491"/>
</svg>
