<svg width="18" height="18" viewBox="0 0 18 18" fill="none" xmlns="http://www.w3.org/2000/svg">
<path d="M17.0524 0H0.947647C0.701782 0.0166027 0.470272 0.121774 0.296023 0.296023C0.121774 0.470272 0.0166027 0.701782 0 0.947647L0 17.0524C0.00139008 17.3033 0.101678 17.5435 0.279095 17.7209C0.456513 17.8983 0.696744 17.9986 0.947647 18H9.56859V10.9895H7.29424V8.33718H9.66282V6.34765C9.61178 5.87052 9.66658 5.388 9.82333 4.93447C9.98009 4.48095 10.2349 4.06757 10.5697 3.72379C10.9045 3.38002 11.311 3.1143 11.7602 2.94558C12.2094 2.77685 12.6903 2.70927 13.1686 2.74765C14.1162 2.74765 14.9686 2.84188 15.2524 2.84188V5.30577H13.8314C12.6942 5.30577 12.5047 5.87435 12.5047 6.63247V8.33718H15.1571L14.778 11.0848H12.4105V18H17.0524C17.3033 17.9986 17.5435 17.8983 17.7209 17.7209C17.8983 17.5435 17.9986 17.3033 18 17.0524V0.947647C17.9834 0.701782 17.8782 0.470272 17.704 0.296023C17.5297 0.121774 17.2982 0.0166027 17.0524 0V0Z" fill="#6E7491"/>
</svg>
