<svg width="22" height="20" viewBox="0 0 22 20" fill="none" xmlns="http://www.w3.org/2000/svg">
<path fill-rule="evenodd" clip-rule="evenodd" d="M0.292852 10.3155C0.0279673 10.419 -0.0805463 10.7356 0.0651342 10.9799L1.81319 13.9108C2.06359 14.3306 2.58081 14.5079 3.0361 14.3299L19.9381 7.72298C20.7279 7.41426 21.1179 6.52374 20.8092 5.73396C20.4883 4.91301 19.5436 4.53019 18.7417 4.89614L13.7432 7.17727L6.77303 0.771251C6.48383 0.505459 6.06849 0.427601 5.70266 0.570603C5.08963 0.810231 4.85636 1.55604 5.22358 2.10227L9.69834 8.75839L2.85554 11.8571L0.724133 10.3669C0.598016 10.2787 0.436176 10.2594 0.292852 10.3155ZM21.6776 17.4521H1.14764V19.0313H21.6776V17.4521Z" fill="#6E7491"/>
</svg>
