<svg width="22" height="22" viewBox="0 0 22 22" fill="none" xmlns="http://www.w3.org/2000/svg">
<path fill-rule="evenodd" clip-rule="evenodd" d="M0.25 6.45455C0.25 3.04033 3.04033 0.25 6.45455 0.25H15.5455C18.9597 0.25 21.75 3.04033 21.75 6.45455V15.5455C21.75 18.9597 18.9597 21.75 15.5455 21.75H6.45455C3.04033 21.75 0.25 18.9597 0.25 15.5455V6.45455ZM6.45455 1.75C3.86876 1.75 1.75 3.86876 1.75 6.45455V15.5455C1.75 18.1312 3.86876 20.25 6.45455 20.25H15.5455C18.1312 20.25 20.25 18.1312 20.25 15.5455V6.45455C20.25 3.86876 18.1312 1.75 15.5455 1.75H6.45455ZM11 14.5C12.933 14.5 14.5 12.933 14.5 11C14.5 9.067 12.933 7.5 11 7.5C9.067 7.5 7.5 9.067 7.5 11C7.5 12.933 9.067 14.5 11 14.5ZM11 16C13.7614 16 16 13.7614 16 11C16 8.23858 13.7614 6 11 6C8.23858 6 6 8.23858 6 11C6 13.7614 8.23858 16 11 16ZM16 6C16.5523 6 17 5.55228 17 5C17 4.44771 16.5523 4 16 4C15.4477 4 15 4.44771 15 5C15 5.55228 15.4477 6 16 6Z" fill="#6E7491"/>
</svg>
