<svg width="18" height="17" viewBox="0 0 18 17" fill="none" xmlns="http://www.w3.org/2000/svg">
<path d="M8.57538 0.682938C8.77102 0.368281 9.22898 0.36828 9.42462 0.682937L11.908 4.67708C11.9768 4.78779 12.0862 4.86723 12.2127 4.89849L16.7788 6.02605C17.1385 6.11488 17.28 6.55042 17.0412 6.83372L14.01 10.4298C13.9259 10.5295 13.8842 10.658 13.8936 10.788L14.2322 15.4791C14.2588 15.8486 13.8884 16.1178 13.5451 15.9782L9.18834 14.2066C9.06758 14.1575 8.93242 14.1575 8.81166 14.2066L4.45488 15.9782C4.11165 16.1178 3.74115 15.8486 3.76783 15.4791L4.10644 10.788C4.11583 10.658 4.07406 10.5295 3.99004 10.4298L0.95879 6.83372C0.719989 6.55042 0.861505 6.11488 1.22122 6.02605L5.78727 4.89849C5.91383 4.86723 6.02318 4.78779 6.09202 4.67708L8.57538 0.682938Z" fill="url(#paint0_linear_11541_1830)"/>
<defs>
<linearGradient id="paint0_linear_11541_1830" x1="9" y1="0" x2="9" y2="18" gradientUnits="userSpaceOnUse">
<stop stop-color="#605DEC"/>
<stop offset="1" stop-color="#2A26D9"/>
</linearGradient>
</defs>
</svg>
